<svg id="visual" viewBox="0 0 900 600" width="900" height="600" xmlns="http://www.w3.org/2000/svg" xmlns:xlink="http://www.w3.org/1999/xlink" version="1.1"><rect x="0" y="0" width="900" height="600" fill="#000000"></rect><defs><linearGradient id="grad1_0" x1="33.3%" y1="0%" x2="100%" y2="100%"><stop offset="20%" stop-color="#000000" stop-opacity="1"></stop><stop offset="80%" stop-color="#000000" stop-opacity="1"></stop></linearGradient></defs><defs><linearGradient id="grad2_0" x1="0%" y1="0%" x2="66.7%" y2="100%"><stop offset="20%" stop-color="#000000" stop-opacity="1"></stop><stop offset="80%" stop-color="#000000" stop-opacity="1"></stop></linearGradient></defs><g transform="translate(900, 0)"><path d="M0 432.7C-41.8 438.2 -83.7 443.8 -112 417.9C-140.3 392.1 -155 334.9 -174.5 302.2C-194 269.6 -218.1 261.5 -249.6 249.6C-281.1 237.7 -319.9 221.9 -339.5 196C-359.1 170.1 -359.5 134 -371.9 99.6C-384.2 65.3 -408.4 32.6 -432.7 0L0 0Z" fill="#42855B"></path></g><g transform="translate(0, 600)"><path d="M0 -432.7C32.2 -399.1 64.3 -365.5 92.1 -343.9C119.9 -322.2 143.3 -312.5 177.5 -307.4C211.7 -302.4 256.6 -301.9 282.8 -282.8C309.1 -263.8 316.8 -226.1 339.5 -196C362.2 -165.9 399.9 -143.4 417.9 -112C436 -80.6 434.3 -40.3 432.7 0L0 0Z" fill="#42855B"></path></g></svg>