<!--?xml version="1.0" standalone="no"?-->
              <svg id="sw-js-blob-svg" viewBox="0 0 100 100" xmlns="http://www.w3.org/2000/svg" version="1.1">
                    <defs> 
                        <linearGradient id="sw-gradient" x1="0" x2="1" y1="1" y2="0">
                            <stop id="stop1" stop-color="rgba(169.735, 255, 166.016, 1)" offset="0%"></stop>
                            <stop id="stop2" stop-color="rgba(66, 133, 91, 1)" offset="100%"></stop>
                        </linearGradient>
                    </defs>
                <path fill="url(#sw-gradient)" d="M22.7,-27.5C30.1,-30.6,37.1,-25.4,37.2,-18.8C37.4,-12.3,30.6,-4.4,27.1,2.2C23.6,8.9,23.2,14.3,21.4,21C19.5,27.7,16.1,35.6,12.1,33.1C8,30.7,3.3,17.8,0.9,10.7C-1.5,3.7,-1.5,2.5,-5.4,2.3C-9.3,2.1,-17.1,2.8,-23.1,-0.2C-29,-3.3,-33.1,-10.1,-31.4,-14.6C-29.7,-19,-22.3,-21.1,-16.1,-18.5C-9.9,-15.9,-4.9,-8.7,1.4,-10.9C7.7,-13,15.4,-24.4,22.7,-27.5Z" width="100%" height="100%" transform="translate(50 50)" style="transition: all 0.3s ease 0s;" stroke-width="0" stroke="url(#sw-gradient)"></path>
              </svg>