<svg id="visual" viewBox="0 0 540 960" width="540" height="960" xmlns="http://www.w3.org/2000/svg" xmlns:xlink="http://www.w3.org/1999/xlink" version="1.1"><rect x="0" y="0" width="540" height="960" fill="#000000"></rect><defs><linearGradient id="grad1_0" x1="0%" y1="100%" x2="100%" y2="0%"><stop offset="30%" stop-color="#000000" stop-opacity="1"></stop><stop offset="70%" stop-color="#000000" stop-opacity="1"></stop></linearGradient></defs><defs><linearGradient id="grad2_0" x1="0%" y1="100%" x2="100%" y2="0%"><stop offset="30%" stop-color="#000000" stop-opacity="1"></stop><stop offset="70%" stop-color="#000000" stop-opacity="1"></stop></linearGradient></defs><g transform="translate(540, 960)"><path d="M-466 0C-487 -72.1 -508.1 -144.1 -486 -201.3C-463.9 -258.5 -398.6 -300.8 -345.1 -345.1C-291.5 -389.3 -249.6 -435.6 -194 -468.4C-138.5 -501.2 -69.2 -520.6 0 -540L0 0Z" fill="#42855B"></path></g><g transform="translate(0, 0)"><path d="M464 0C468 73.2 471.9 146.3 428.7 177.6C385.4 208.8 295 198.1 258.8 258.8C222.6 319.5 240.7 451.5 206.6 498.9C172.6 546.3 86.3 509.2 0 472L0 0Z" fill="#42855B"></path></g></svg>