<svg id="visual" viewBox="0 0 960 540" width="960" height="540" xmlns="http://www.w3.org/2000/svg" xmlns:xlink="http://www.w3.org/1999/xlink" version="1.1"><rect x="0" y="0" width="960" height="540" fill="#000"></rect><path d="M0 155L22.8 141.8C45.7 128.7 91.3 102.3 137 92.8C182.7 83.3 228.3 90.7 274 103.8C319.7 117 365.3 136 411.2 126.2C457 116.3 503 77.7 548.8 86.2C594.7 94.7 640.3 150.3 686 164C731.7 177.7 777.3 149.3 823 147.2C868.7 145 914.3 169 937.2 181L960 193L960 0L937.2 0C914.3 0 868.7 0 823 0C777.3 0 731.7 0 686 0C640.3 0 594.7 0 548.8 0C503 0 457 0 411.2 0C365.3 0 319.7 0 274 0C228.3 0 182.7 0 137 0C91.3 0 45.7 0 22.8 0L0 0Z" fill="#42855B" stroke-linecap="round" stroke-linejoin="miter"></path></svg>