<svg id="visual" viewBox="0 0 900 600" width="900" height="600" xmlns="http://www.w3.org/2000/svg" xmlns:xlink="http://www.w3.org/1999/xlink" version="1.1"><rect x="0" y="0" width="900" height="600" fill="#000"></rect><path d="M0 273L13.7 262.5C27.3 252 54.7 231 82 244.3C109.3 257.7 136.7 305.3 163.8 314.3C191 323.3 218 293.7 245.2 286.7C272.3 279.7 299.7 295.3 327 294.8C354.3 294.3 381.7 277.7 409 262C436.3 246.3 463.7 231.7 491 238.8C518.3 246 545.7 275 573 287.8C600.3 300.7 627.7 297.3 654.8 299.8C682 302.3 709 310.7 736.2 324.3C763.3 338 790.7 357 818 339.7C845.3 322.3 872.7 268.7 886.3 241.8L900 215L900 601L886.3 601C872.7 601 845.3 601 818 601C790.7 601 763.3 601 736.2 601C709 601 682 601 654.8 601C627.7 601 600.3 601 573 601C545.7 601 518.3 601 491 601C463.7 601 436.3 601 409 601C381.7 601 354.3 601 327 601C299.7 601 272.3 601 245.2 601C218 601 191 601 163.8 601C136.7 601 109.3 601 82 601C54.7 601 27.3 601 13.7 601L0 601Z" fill="#42855B" stroke-linecap="round" stroke-linejoin="miter"></path></svg>