<svg id="visual" viewBox="0 0 900 600" width="900" height="600" xmlns="http://www.w3.org/2000/svg" xmlns:xlink="http://www.w3.org/1999/xlink" version="1.1"><path d="M0 282L13.7 289.2C27.3 296.3 54.7 310.7 82 327.5C109.3 344.3 136.7 363.7 163.8 347C191 330.3 218 277.7 245.2 262C272.3 246.3 299.7 267.7 327 266.2C354.3 264.7 381.7 240.3 409 237.5C436.3 234.7 463.7 253.3 491 270.8C518.3 288.3 545.7 304.7 573 304.5C600.3 304.3 627.7 287.7 654.8 270.5C682 253.3 709 235.7 736.2 235.8C763.3 236 790.7 254 818 271.3C845.3 288.7 872.7 305.3 886.3 313.7L900 322L900 601L886.3 601C872.7 601 845.3 601 818 601C790.7 601 763.3 601 736.2 601C709 601 682 601 654.8 601C627.7 601 600.3 601 573 601C545.7 601 518.3 601 491 601C463.7 601 436.3 601 409 601C381.7 601 354.3 601 327 601C299.7 601 272.3 601 245.2 601C218 601 191 601 163.8 601C136.7 601 109.3 601 82 601C54.7 601 27.3 601 13.7 601L0 601Z" fill="#42855B" stroke-linecap="round" stroke-linejoin="miter"></path></svg>