<svg id="visual" viewBox="0 0 900 675" width="900" height="675" xmlns="http://www.w3.org/2000/svg" xmlns:xlink="http://www.w3.org/1999/xlink" version="1.1"><path d="M0 149L10 147C20 145 40 141 60 141.8C80 142.7 100 148.3 120 146.3C140 144.3 160 134.7 180 122.5C200 110.3 220 95.7 240 85C260 74.3 280 67.7 300 84.7C320 101.7 340 142.3 360 164.5C380 186.7 400 190.3 420 182.7C440 175 460 156 480 149C500 142 520 147 540 155C560 163 580 174 600 181.5C620 189 640 193 660 181.5C680 170 700 143 720 126.5C740 110 760 104 780 105C800 106 820 114 840 129.8C860 145.7 880 169.3 890 181.2L900 193L900 0L890 0C880 0 860 0 840 0C820 0 800 0 780 0C760 0 740 0 720 0C700 0 680 0 660 0C640 0 620 0 600 0C580 0 560 0 540 0C520 0 500 0 480 0C460 0 440 0 420 0C400 0 380 0 360 0C340 0 320 0 300 0C280 0 260 0 240 0C220 0 200 0 180 0C160 0 140 0 120 0C100 0 80 0 60 0C40 0 20 0 10 0L0 0Z" fill="#42855B" stroke-linecap="round" stroke-linejoin="miter"></path></svg>