<svg id="visual" viewBox="0 0 900 600" width="900" height="600" xmlns="http://www.w3.org/2000/svg" xmlns:xlink="http://www.w3.org/1999/xlink" version="1.1"><path d="M0 374L13.7 385.2C27.3 396.3 54.7 418.7 82 411.7C109.3 404.7 136.7 368.3 163.8 348.3C191 328.3 218 324.7 245.2 342.5C272.3 360.3 299.7 399.7 327 417.3C354.3 435 381.7 431 409 414.8C436.3 398.7 463.7 370.3 491 363.3C518.3 356.3 545.7 370.7 573 380.2C600.3 389.7 627.7 394.3 654.8 392.5C682 390.7 709 382.3 736.2 393.5C763.3 404.7 790.7 435.3 818 447.7C845.3 460 872.7 454 886.3 451L900 448L900 601L886.3 601C872.7 601 845.3 601 818 601C790.7 601 763.3 601 736.2 601C709 601 682 601 654.8 601C627.7 601 600.3 601 573 601C545.7 601 518.3 601 491 601C463.7 601 436.3 601 409 601C381.7 601 354.3 601 327 601C299.7 601 272.3 601 245.2 601C218 601 191 601 163.8 601C136.7 601 109.3 601 82 601C54.7 601 27.3 601 13.7 601L0 601Z" fill="#42855B" stroke-linecap="round" stroke-linejoin="miter"></path></svg>