<?xml version="1.0" standalone="no"?><svg xmlns="http://www.w3.org/2000/svg" viewBox="0 0 1440 320"><path fill="#42855B" fill-opacity="1" d="M0,256L26.7,224C53.3,192,107,128,160,117.3C213.3,107,267,149,320,176C373.3,203,427,213,480,208C533.3,203,587,181,640,154.7C693.3,128,747,96,800,74.7C853.3,53,907,43,960,80C1013.3,117,1067,203,1120,224C1173.3,245,1227,203,1280,186.7C1333.3,171,1387,181,1413,186.7L1440,192L1440,320L1413.3,320C1386.7,320,1333,320,1280,320C1226.7,320,1173,320,1120,320C1066.7,320,1013,320,960,320C906.7,320,853,320,800,320C746.7,320,693,320,640,320C586.7,320,533,320,480,320C426.7,320,373,320,320,320C266.7,320,213,320,160,320C106.7,320,53,320,27,320L0,320Z"></path></svg>