<svg id="visual" viewBox="0 0 900 600" width="900" height="600" xmlns="http://www.w3.org/2000/svg" xmlns:xlink="http://www.w3.org/1999/xlink" version="1.1"><rect x="0" y="0" width="900" height="600" fill="#000"></rect><path d="M0 247L13.7 265.8C27.3 284.7 54.7 322.3 82 328.8C109.3 335.3 136.7 310.7 163.8 296.3C191 282 218 278 245.2 281C272.3 284 299.7 294 327 290C354.3 286 381.7 268 409 255.3C436.3 242.7 463.7 235.3 491 233C518.3 230.7 545.7 233.3 573 254.5C600.3 275.7 627.7 315.3 654.8 315.3C682 315.3 709 275.7 736.2 275.8C763.3 276 790.7 316 818 316.2C845.3 316.3 872.7 276.7 886.3 256.8L900 237L900 0L886.3 0C872.7 0 845.3 0 818 0C790.7 0 763.3 0 736.2 0C709 0 682 0 654.8 0C627.7 0 600.3 0 573 0C545.7 0 518.3 0 491 0C463.7 0 436.3 0 409 0C381.7 0 354.3 0 327 0C299.7 0 272.3 0 245.2 0C218 0 191 0 163.8 0C136.7 0 109.3 0 82 0C54.7 0 27.3 0 13.7 0L0 0Z" fill="#42855B" stroke-linecap="round" stroke-linejoin="miter"></path></svg>