<svg id="visual" viewBox="0 0 900 600" width="900" height="600" xmlns="http://www.w3.org/2000/svg" xmlns:xlink="http://www.w3.org/1999/xlink" version="1.1"><path d="M0 286L13.7 289.7C27.3 293.3 54.7 300.7 82 308.8C109.3 317 136.7 326 163.8 315C191 304 218 273 245.2 279.8C272.3 286.7 299.7 331.3 327 342.7C354.3 354 381.7 332 409 333.5C436.3 335 463.7 360 491 366.3C518.3 372.7 545.7 360.3 573 340.8C600.3 321.3 627.7 294.7 654.8 285.7C682 276.7 709 285.3 736.2 291.7C763.3 298 790.7 302 818 315.3C845.3 328.7 872.7 351.3 886.3 362.7L900 374L900 0L886.3 0C872.7 0 845.3 0 818 0C790.7 0 763.3 0 736.2 0C709 0 682 0 654.8 0C627.7 0 600.3 0 573 0C545.7 0 518.3 0 491 0C463.7 0 436.3 0 409 0C381.7 0 354.3 0 327 0C299.7 0 272.3 0 245.2 0C218 0 191 0 163.8 0C136.7 0 109.3 0 82 0C54.7 0 27.3 0 13.7 0L0 0Z" fill="#42855B" stroke-linecap="round" stroke-linejoin="miter"></path></svg>