<svg id="visual" viewBox="0 0 540 960" width="540" height="959" xmlns="http://www.w3.org/2000/svg" xmlns:xlink="http://www.w3.org/1999/xlink" version="1.1"><path d="M0 824L11.3 817.7C22.7 811.3 45.3 798.7 67.8 802.8C90.3 807 112.7 828 135.2 836C157.7 844 180.3 839 202.8 828C225.3 817 247.7 800 270.2 801C292.7 802 315.3 821 337.8 831.3C360.3 841.7 382.7 843.3 405.2 839.3C427.7 835.3 450.3 825.7 472.8 824.2C495.3 822.7 517.7 829.3 528.8 832.7L540 836L540 961L528.8 961C517.7 961 495.3 961 472.8 961C450.3 961 427.7 961 405.2 961C382.7 961 360.3 961 337.8 961C315.3 961 292.7 961 270.2 961C247.7 961 225.3 961 202.8 961C180.3 961 157.7 961 135.2 961C112.7 961 90.3 961 67.8 961C45.3 961 22.7 961 11.3 961L0 961Z" fill="#42855B" stroke-linecap="round" stroke-linejoin="miter"></path></svg>
