<svg id="visual" viewBox="0 0 540 960" width="540" height="958" xmlns="http://www.w3.org/2000/svg" xmlns:xlink="http://www.w3.org/1999/xlink" version="1.1"><path d="M0 158L11.3 162.2C22.7 166.3 45.3 174.7 67.8 173.5C90.3 172.3 112.7 161.7 135.2 151.5C157.7 141.3 180.3 131.7 202.8 123.5C225.3 115.3 247.7 108.7 270.2 110.5C292.7 112.3 315.3 122.7 337.8 133.2C360.3 143.7 382.7 154.3 405.2 151.8C427.7 149.3 450.3 133.7 472.8 127.3C495.3 121 517.7 124 528.8 125.5L540 127L540 0L528.8 0C517.7 0 495.3 0 472.8 0C450.3 0 427.7 0 405.2 0C382.7 0 360.3 0 337.8 0C315.3 0 292.7 0 270.2 0C247.7 0 225.3 0 202.8 0C180.3 0 157.7 0 135.2 0C112.7 0 90.3 0 67.8 0C45.3 0 22.7 0 11.3 0L0 0Z" fill="#42855B" stroke-linecap="round" stroke-linejoin="miter"></path></svg>
