<svg id="visual" viewBox="0 0 540 960" width="540" height="960" xmlns="http://www.w3.org/2000/svg" xmlns:xlink="http://www.w3.org/1999/xlink" version="1.1"><rect x="0" y="0" width="540" height="960" fill="#000"></rect><path d="M0 276L12.8 252.5C25.7 229 51.3 182 77 165.2C102.7 148.3 128.3 161.7 154 185.3C179.7 209 205.3 243 231.2 225.5C257 208 283 139 308.8 153.8C334.7 168.7 360.3 267.3 386 291.8C411.7 316.3 437.3 266.7 463 263C488.7 259.3 514.3 301.7 527.2 322.8L540 344L540 0L527.2 0C514.3 0 488.7 0 463 0C437.3 0 411.7 0 386 0C360.3 0 334.7 0 308.8 0C283 0 257 0 231.2 0C205.3 0 179.7 0 154 0C128.3 0 102.7 0 77 0C51.3 0 25.7 0 12.8 0L0 0Z" fill="#42855B" stroke-linecap="round" stroke-linejoin="miter"></path></svg>