<svg id="visual" viewBox="0 0 540 960" width="540" height="960" xmlns="http://www.w3.org/2000/svg" xmlns:xlink="http://www.w3.org/1999/xlink" version="1.1"><path d="M0 845L8.2 834.7C16.3 824.3 32.7 803.7 49 796.2C65.3 788.7 81.7 794.3 98 808.8C114.3 823.3 130.7 846.7 147 840.2C163.3 833.7 179.7 797.3 196 790.2C212.3 783 228.7 805 245.2 819.7C261.7 834.3 278.3 841.7 294.8 834.7C311.3 827.7 327.7 806.3 344 805.8C360.3 805.3 376.7 825.7 393 833.2C409.3 840.7 425.7 835.3 442 830.8C458.3 826.3 474.7 822.7 491 829C507.3 835.3 523.7 851.7 531.8 859.8L540 868L540 961L531.8 961C523.7 961 507.3 961 491 961C474.7 961 458.3 961 442 961C425.7 961 409.3 961 393 961C376.7 961 360.3 961 344 961C327.7 961 311.3 961 294.8 961C278.3 961 261.7 961 245.2 961C228.7 961 212.3 961 196 961C179.7 961 163.3 961 147 961C130.7 961 114.3 961 98 961C81.7 961 65.3 961 49 961C32.7 961 16.3 961 8.2 961L0 961Z" fill="#42855B" stroke-linecap="round" stroke-linejoin="miter"></path></svg>